<svg xmlns="http://www.w3.org/2000/svg" width="700" height="900" viewBox="0 0 700 900">
  <defs>
    <linearGradient id="bg" x1="0" y1="0" x2="1" y2="1">
      <stop offset="0%" stop-color="#f6f3ee"/>
      <stop offset="100%" stop-color="#ebe2d7"/>
    </linearGradient>
    <linearGradient id="shoe" x1="0" y1="0" x2="1" y2="1">
      <stop offset="0%" stop-color="#6a4a39"/>
      <stop offset="100%" stop-color="#4a3228"/>
    </linearGradient>
    <filter id="s" x="-20%" y="-20%" width="140%" height="140%">
      <feDropShadow dx="0" dy="18" stdDeviation="18" flood-color="#8d7a6f" flood-opacity=".3"/>
    </filter>
  </defs>
  <rect width="700" height="900" fill="url(#bg)"/>
  <g filter="url(#s)" transform="translate(65 355)">
    <path d="M50 190c51 0 119-15 170-59l86-73 104 47c56 25 124 40 160 42v65c0 37-28 67-64 67H85c-38 0-68-30-68-67v-22c0-14 9-20 33-20z" fill="url(#shoe)"/>
    <path d="M107 126h209c49 0 92 19 123 58" fill="none" stroke="#8b6a56" stroke-width="8" stroke-linecap="round"/>
    <path d="M94 212h365" stroke="#f4efe8" stroke-width="12" stroke-linecap="round"/>
    <rect x="196" y="131" width="131" height="32" rx="16" fill="#d7ba78"/>
  </g>
</svg>