<svg xmlns="http://www.w3.org/2000/svg" width="700" height="900" viewBox="0 0 700 900">
  <defs>
    <linearGradient id="bg" x1="0" y1="0" x2="1" y2="1">
      <stop offset="0%" stop-color="#f4f5f7"/>
      <stop offset="100%" stop-color="#e5e9ee"/>
    </linearGradient>
    <linearGradient id="shoe" x1="0" y1="0" x2="1" y2="1">
      <stop offset="0%" stop-color="#f5f7fa"/>
      <stop offset="100%" stop-color="#cfd8e5"/>
    </linearGradient>
    <filter id="s" x="-20%" y="-20%" width="140%" height="140%">
      <feDropShadow dx="0" dy="18" stdDeviation="18" flood-color="#8c98a7" flood-opacity=".28"/>
    </filter>
  </defs>
  <rect width="700" height="900" fill="url(#bg)"/>
  <g filter="url(#s)" transform="translate(72 340)">
    <path d="M63 214c67-8 130-29 188-74l88-70 80 89 74 26c32 11 53 42 53 76v19H0v-18c0-25 14-43 38-48z" fill="url(#shoe)"/>
    <path d="M38 280h508" stroke="#fff" stroke-width="26" stroke-linecap="round"/>
    <path d="M263 102c18 17 34 36 48 56" stroke="#8c9ab0" stroke-width="7" stroke-linecap="round"/>
    <path d="M302 88c18 18 34 39 48 61" stroke="#8c9ab0" stroke-width="7" stroke-linecap="round"/>
    <path d="M212 149h115" stroke="#9ba9bd" stroke-width="5"/>
    <path d="M212 171h125" stroke="#9ba9bd" stroke-width="5"/>
  </g>
</svg>